<?xml version="1.0" encoding="utf-8"?>
<!-- Generator: Adobe Illustrator 23.0.1, SVG Export Plug-In . SVG Version: 6.00 Build 0)  -->
<svg version="1.1" id="Layer_1" xmlns="http://www.w3.org/2000/svg" xmlns:xlink="http://www.w3.org/1999/xlink" x="0px" y="0px"
	 viewBox="0 0 100 100" style="enable-background:new 0 0 100 100;" xml:space="preserve">
<path d="M60,15c0,5.5-4.5,10-10,10c-5.5,0-10-4.5-10-10S44.5,5,50,5C55.5,5,60,9.5,60,15z M15,5C9.5,5,5,9.5,5,15s4.5,10,10,10
	s10-4.5,10-10S20.5,5,15,5z M85,25c5.5,0,10-4.5,10-10S90.5,5,85,5S75,9.5,75,15S79.5,25,85,25z M50,75c-5.5,0-10,4.5-10,10
	s4.5,10,10,10c5.5,0,10-4.5,10-10S55.5,75,50,75z M15,75C9.5,75,5,79.5,5,85s4.5,10,10,10s10-4.5,10-10S20.5,75,15,75z M85,75
	c-5.5,0-10,4.5-10,10s4.5,10,10,10s10-4.5,10-10S90.5,75,85,75z M50,40c-5.5,0-10,4.5-10,10c0,5.5,4.5,10,10,10c5.5,0,10-4.5,10-10
	C60,44.5,55.5,40,50,40z M15,40C9.5,40,5,44.5,5,50c0,5.5,4.5,10,10,10s10-4.5,10-10C25,44.5,20.5,40,15,40z M85,40
	c-5.5,0-10,4.5-10,10c0,5.5,4.5,10,10,10s10-4.5,10-10C95,44.5,90.5,40,85,40z"/>
</svg>
