<?xml version="1.0" encoding="utf-8"?>
<!-- Generator: Adobe Illustrator 21.0.2, SVG Export Plug-In . SVG Version: 6.00 Build 0)  -->
<svg version="1.1" id="Layer_1" xmlns="http://www.w3.org/2000/svg" xmlns:xlink="http://www.w3.org/1999/xlink" x="0px" y="0px"
	 viewBox="0 0 100 100" style="enable-background:new 0 0 100 100;" xml:space="preserve">
<g>
	<path d="M13.9,23.8l0.6-0.6c1.1-1.1,2.8-1.1,3.9,0c1.3,1.3,3,2,4.8,2c1.8,0,3.5-0.7,4.8-2c1.1-1.1,2.8-1.1,3.9,0
		c2.6,2.6,6.9,2.6,9.5,0c1-1,2.8-1,3.9,0c2.6,2.6,6.9,2.6,9.5,0c1.1-1.1,2.8-1.1,3.9,0c1.3,1.3,3,2,4.8,2c1.8,0,3.5-0.7,4.8-2
		c1-1,2.8-1,3.9,0c1.3,1.3,3,2,4.8,2c1.8,0,3.5-0.7,4.8-2c1.1-1.1,2.8-1.1,3.9,0l0.6,0.6c1.1,1.1,2.6,1.7,4.1,1.7s3-0.6,4.1-1.7
		c0.8-0.8,0.8-2,0-2.8c-0.8-0.8-2-0.8-2.8,0c-0.7,0.7-1.9,0.7-2.6,0l-0.6-0.6c-2.6-2.6-6.9-2.6-9.5,0c-1,1-2.8,1-3.9,0
		c-1.3-1.3-3-2-4.8-2c-1.8,0-3.5,0.7-4.8,2c-1,1-2.8,1-3.9,0c-2.6-2.6-6.9-2.6-9.5,0c-1.1,1.1-2.8,1.1-3.9,0c-2.6-2.6-6.9-2.6-9.5,0
		c-1.1,1.1-2.8,1.1-3.9,0c-1.3-1.3-3-2-4.8-2s-3.5,0.7-4.8,2c-1.1,1.1-2.8,1.1-3.9,0c-2.6-2.6-6.9-2.6-9.5,0l-0.6,0.6
		c-0.7,0.7-1.9,0.7-2.6,0c-0.8-0.8-2-0.8-2.8,0c-0.8,0.8-0.8,2,0,2.8C7.9,26,11.6,26,13.9,23.8z"/>
	<path d="M91.6,32.1c-0.7,0.7-1.9,0.7-2.6,0l-0.6-0.6c-2.6-2.6-6.9-2.6-9.5,0c-1,1-2.8,1-3.9,0c-1.3-1.3-3-2-4.8-2
		c-1.8,0-3.5,0.7-4.8,2c-1,1-2.8,1-3.9,0c-2.6-2.6-6.9-2.6-9.5,0c-1.1,1.1-2.8,1.1-3.9,0c-2.6-2.6-6.9-2.6-9.5,0
		c-1.1,1.1-2.8,1.1-3.9,0c-1.3-1.3-3-2-4.8-2s-3.5,0.7-4.8,2c-1.1,1.1-2.8,1.1-3.9,0c-2.6-2.6-6.9-2.6-9.5,0l-0.6,0.6
		c-0.7,0.7-1.9,0.7-2.6,0c-0.8-0.8-2-0.8-2.8,0c-0.8,0.8-0.8,2,0,2.8c2.3,2.3,6,2.3,8.3,0l0.6-0.6c1.1-1.1,2.8-1.1,3.9,0
		c1.3,1.3,3,2,4.8,2c1.8,0,3.5-0.7,4.8-2c1.1-1.1,2.8-1.1,3.9,0c2.6,2.6,6.9,2.6,9.5,0c1-1,2.8-1,3.9,0c2.6,2.6,6.9,2.6,9.5,0
		c1.1-1.1,2.8-1.1,3.9,0c1.3,1.3,3,2,4.8,2c1.8,0,3.5-0.7,4.8-2c1-1,2.8-1,3.9,0c1.3,1.3,3,2,4.8,2c1.8,0,3.5-0.7,4.8-2
		c1.1-1.1,2.8-1.1,3.9,0l0.6,0.6c1.1,1.1,2.6,1.7,4.1,1.7s3-0.6,4.1-1.7c0.8-0.8,0.8-2,0-2.8C93.6,31.3,92.4,31.3,91.6,32.1z"/>
	<path d="M91.6,43.9c-0.7,0.7-1.9,0.7-2.6,0l-0.6-0.6c-2.6-2.6-6.9-2.6-9.5,0c-1,1-2.8,1-3.9,0c-1.3-1.3-3-2-4.8-2
		c-1.8,0-3.5,0.7-4.8,2c-1,1-2.8,1-3.9,0c-2.6-2.6-6.9-2.6-9.5,0c-1.1,1.1-2.8,1.1-3.9,0c-2.6-2.6-6.9-2.6-9.5,0
		c-1.1,1.1-2.8,1.1-3.9,0c-1.3-1.3-3-2-4.8-2s-3.5,0.7-4.8,2c-1.1,1.1-2.8,1.1-3.9,0c-2.6-2.6-6.9-2.6-9.5,0l-0.6,0.6
		c-0.7,0.7-1.9,0.7-2.6,0c-0.8-0.8-2-0.8-2.8,0c-0.8,0.8-0.8,2,0,2.8c2.3,2.3,6,2.3,8.3,0l0.6-0.6c1.1-1.1,2.8-1.1,3.9,0
		c1.3,1.3,3,2,4.8,2c1.8,0,3.5-0.7,4.8-2c1.1-1.1,2.8-1.1,3.9,0c2.6,2.6,6.9,2.6,9.5,0c1-1,2.8-1,3.9,0c2.6,2.6,6.9,2.6,9.5,0
		c1.1-1.1,2.8-1.1,3.9,0c1.3,1.3,3,2,4.8,2c1.8,0,3.5-0.7,4.8-2c1-1,2.8-1,3.9,0c1.3,1.3,3,2,4.8,2c1.8,0,3.5-0.7,4.8-2
		c1.1-1.1,2.8-1.1,3.9,0l0.6,0.6c1.1,1.1,2.6,1.7,4.1,1.7s3-0.6,4.1-1.7c0.8-0.8,0.8-2,0-2.8C93.6,43.2,92.4,43.2,91.6,43.9z"/>
	<path d="M91.6,55.1c-0.7,0.7-1.9,0.7-2.6,0l-0.6-0.6c-2.6-2.6-6.9-2.6-9.5,0c-1.1,1.1-2.8,1.1-3.9,0c-1.3-1.3-3-2-4.8-2
		c-1.8,0-3.5,0.7-4.8,2c-1.1,1.1-2.8,1.1-3.9,0c-1.3-1.3-3-2-4.8-2s-3.5,0.7-4.8,2c-1.1,1.1-2.8,1.1-3.9,0c-1.3-1.3-3-2-4.8-2
		c-1.8,0-3.5,0.7-4.8,2c-1.1,1.1-2.8,1.1-3.9,0c-1.3-1.3-3-2-4.8-2s-3.5,0.7-4.8,2c-1.1,1.1-2.8,1.1-3.9,0c-1.3-1.3-3-2-4.8-2
		c-1.8,0-3.5,0.7-4.8,2l-0.6,0.6c-0.7,0.7-1.9,0.7-2.6,0c-0.8-0.8-2-0.8-2.8,0c-0.8,0.8-0.8,2,0,2.8c1.1,1.1,2.6,1.7,4.1,1.7
		s3-0.6,4.1-1.7l0.6-0.6c1-1,2.8-1,3.9,0c2.6,2.6,6.9,2.6,9.5,0c1-1,2.8-1,3.9,0c2.6,2.6,6.9,2.6,9.5,0c1-1,2.8-1,3.9,0
		c2.6,2.6,6.9,2.6,9.5,0c1.1-1.1,2.8-1.1,3.9,0c2.6,2.6,6.9,2.6,9.5,0c1-1,2.8-1,3.9,0c2.6,2.6,6.9,2.6,9.5,0c1-1,2.8-1,3.9,0
		l0.6,0.6c1.1,1.1,2.6,1.7,4.1,1.7s3-0.6,4.1-1.7c0.8-0.8,0.8-2,0-2.8S92.4,54.3,91.6,55.1z"/>
	<path d="M91.6,65.9c-0.7,0.7-1.9,0.7-2.6,0l-0.6-0.6c-2.6-2.6-6.9-2.6-9.5,0c-1.1,1.1-2.8,1.1-3.9,0c-1.3-1.3-3-2-4.8-2
		c-1.8,0-3.5,0.7-4.8,2c-1.1,1.1-2.8,1.1-3.9,0c-1.3-1.3-3-2-4.8-2s-3.5,0.7-4.8,2c-1.1,1.1-2.8,1.1-3.9,0c-1.3-1.3-3-2-4.8-2
		c-1.8,0-3.5,0.7-4.8,2c-1.1,1.1-2.8,1.1-3.9,0c-1.3-1.3-3-2-4.8-2s-3.5,0.7-4.8,2c-1.1,1.1-2.8,1.1-3.9,0c-1.3-1.3-3-2-4.8-2
		c-1.8,0-3.5,0.7-4.8,2l-0.6,0.6c-0.7,0.7-1.9,0.7-2.6,0c-0.8-0.8-2-0.8-2.8,0c-0.8,0.8-0.8,2,0,2.8c1.1,1.1,2.6,1.7,4.1,1.7
		c1.5,0,3-0.6,4.1-1.7l0.6-0.6c1-1,2.8-1,3.9,0c2.6,2.6,6.9,2.6,9.5,0c1-1,2.8-1,3.9,0c2.6,2.6,6.9,2.6,9.5,0c1-1,2.8-1,3.9,0
		c2.6,2.6,6.9,2.6,9.5,0c1.1-1.1,2.8-1.1,3.9,0c2.6,2.6,6.9,2.6,9.5,0c1-1,2.8-1,3.9,0c2.6,2.6,6.9,2.6,9.5,0c1-1,2.8-1,3.9,0
		l0.6,0.6c2.3,2.3,6,2.3,8.3,0c0.8-0.8,0.8-2,0-2.8S92.4,65.2,91.6,65.9z"/>
	<path d="M91.6,77.1c-0.7,0.7-1.9,0.7-2.6,0l-0.6-0.6c-2.6-2.6-6.9-2.6-9.5,0c-1.1,1.1-2.8,1.1-3.9,0c-1.3-1.3-3-2-4.8-2
		c-1.8,0-3.5,0.7-4.8,2c-1.1,1.1-2.8,1.1-3.9,0c-1.3-1.3-3-2-4.8-2s-3.5,0.7-4.8,2c-1.1,1.1-2.8,1.1-3.9,0c-1.3-1.3-3-2-4.8-2
		c-1.8,0-3.5,0.7-4.8,2c-1.1,1.1-2.8,1.1-3.9,0c-1.3-1.3-3-2-4.8-2s-3.5,0.7-4.8,2c-1.1,1.1-2.8,1.1-3.9,0c-1.3-1.3-3-2-4.8-2
		c-1.8,0-3.5,0.7-4.8,2l-0.6,0.6c-0.7,0.7-1.9,0.7-2.6,0c-0.8-0.8-2-0.8-2.8,0c-0.8,0.8-0.8,2,0,2.8c1.1,1.1,2.6,1.7,4.1,1.7
		s3-0.6,4.1-1.7l0.6-0.6c1-1,2.8-1,3.9,0c2.6,2.6,6.9,2.6,9.5,0c1-1,2.8-1,3.9,0c2.6,2.6,6.9,2.6,9.5,0c1-1,2.8-1,3.9,0
		c2.6,2.6,6.9,2.6,9.5,0c1.1-1.1,2.8-1.1,3.9,0c2.6,2.6,6.9,2.6,9.5,0c1-1,2.8-1,3.9,0c2.6,2.6,6.9,2.6,9.5,0c1-1,2.8-1,3.9,0
		l0.6,0.6c1.1,1.1,2.6,1.7,4.1,1.7s3-0.6,4.1-1.7c0.8-0.8,0.8-2,0-2.8S92.4,76.3,91.6,77.1z"/>
</g>
</svg>
